<svg width="795" height="179" viewBox="0 0 795 179" fill="none" xmlns="http://www.w3.org/2000/svg">
<path d="M37.2 93.6C37.2 101.2 38.1333 108.133 40 114.4C41.8667 120.533 44.5333 125.8 48 130.2C51.6 134.467 55.9333 137.8 61 140.2C66.0667 142.6 71.8 143.8 78.2 143.8C84.4667 143.8 90.1333 142.6 95.2 140.2C100.267 137.8 104.533 134.467 108 130.2C111.6 125.8 114.333 120.533 116.2 114.4C118.067 108.133 119 101.2 119 93.6C119 86 118.067 79.1333 116.2 73C114.333 66.7333 111.6 61.4667 108 57.2C104.533 52.8 100.267 49.4 95.2 47C90.1333 44.6 84.4667 43.4 78.2 43.4C71.8 43.4 66.0667 44.6 61 47C55.9333 49.4 51.6 52.8 48 57.2C44.5333 61.6 41.8667 66.8667 40 73C38.1333 79.1333 37.2 86 37.2 93.6ZM145.4 93.6C145.4 105.467 143.6 115.933 140 125C136.533 134.067 131.733 141.667 125.6 147.8C119.6 153.8 112.533 158.333 104.4 161.4C96.2667 164.467 87.6 166 78.4 166C69.2 166 60.4667 164.467 52.2 161.4C44.0667 158.333 36.9333 153.8 30.8 147.8C24.8 141.667 20 134.067 16.4 125C12.8 115.933 11 105.467 11 93.6C11 81.7333 12.8 71.3333 16.4 62.4C20 53.3333 24.8667 45.7333 31 39.6C37.2667 33.4667 44.4667 28.8667 52.6 25.8C60.7333 22.7333 69.3333 21.2 78.4 21.2C87.4667 21.2 96.0667 22.7333 104.2 25.8C112.333 28.8667 119.4 33.4667 125.4 39.6C131.533 45.7333 136.4 53.3333 140 62.4C143.6 71.3333 145.4 81.7333 145.4 93.6ZM239.445 80.2C237.445 79.5333 234.645 78.8667 231.045 78.2C227.579 77.4 223.512 77 218.845 77C216.179 77 213.312 77.2667 210.245 77.8C207.312 78.3333 205.245 78.8 204.045 79.2V163H179.845V63.4C184.512 61.6667 190.312 60.0667 197.245 58.6C204.312 57 212.112 56.2 220.645 56.2C222.245 56.2 224.112 56.3333 226.245 56.6C228.379 56.7333 230.512 57 232.645 57.4C234.779 57.6667 236.845 58.0667 238.845 58.6C240.845 59 242.445 59.4 243.645 59.8L239.445 80.2ZM292.909 163H268.709V58.4H292.909V163ZM295.509 27.8C295.509 32.3333 294.043 35.9333 291.109 38.6C288.176 41.2667 284.709 42.6 280.709 42.6C276.576 42.6 273.043 41.2667 270.109 38.6C267.176 35.9333 265.709 32.3333 265.709 27.8C265.709 23.1333 267.176 19.4667 270.109 16.8C273.043 14.1333 276.576 12.8 280.709 12.8C284.709 12.8 288.176 14.1333 291.109 16.8C294.043 19.4667 295.509 23.1333 295.509 27.8ZM426.383 110.6C426.383 118.867 425.183 126.4 422.783 133.2C420.383 140 416.983 145.8 412.583 150.6C408.183 155.4 402.849 159.133 396.583 161.8C390.449 164.467 383.649 165.8 376.183 165.8C368.716 165.8 361.916 164.467 355.783 161.8C349.649 159.133 344.383 155.4 339.983 150.6C335.583 145.8 332.116 140 329.583 133.2C327.183 126.4 325.983 118.867 325.983 110.6C325.983 102.333 327.183 94.8667 329.583 88.2C332.116 81.4 335.583 75.6 339.983 70.8C344.516 66 349.849 62.3333 355.983 59.8C362.116 57.1333 368.849 55.8 376.183 55.8C383.516 55.8 390.249 57.1333 396.383 59.8C402.649 62.3333 407.983 66 412.383 70.8C416.783 75.6 420.183 81.4 422.583 88.2C425.116 94.8667 426.383 102.333 426.383 110.6ZM401.583 110.6C401.583 100.2 399.316 92 394.783 86C390.383 79.8667 384.183 76.8 376.183 76.8C368.183 76.8 361.916 79.8667 357.383 86C352.983 92 350.783 100.2 350.783 110.6C350.783 121.133 352.983 129.467 357.383 135.6C361.916 141.733 368.183 144.8 376.183 144.8C384.183 144.8 390.383 141.733 394.783 135.6C399.316 129.467 401.583 121.133 401.583 110.6ZM459.314 61.8C463.981 60.4667 470.047 59.2 477.514 58C484.981 56.8 493.247 56.2 502.314 56.2C510.847 56.2 517.981 57.4 523.714 59.8C529.447 62.0667 533.981 65.3333 537.314 69.6C540.781 73.7333 543.181 78.8 544.514 84.8C545.981 90.6667 546.714 97.1333 546.714 104.2V163H522.514V108C522.514 102.4 522.114 97.6667 521.314 93.8C520.647 89.8 519.447 86.6 517.714 84.2C516.114 81.6667 513.847 79.8667 510.914 78.8C508.114 77.6 504.647 77 500.514 77C497.447 77 494.247 77.2 490.914 77.6C487.581 78 485.114 78.3333 483.514 78.6V163H459.314V61.8Z" fill="black"/>
<path d="M585.506 24.4H610.706V163H585.506V24.4ZM672.505 93.6C672.505 101.2 673.438 108.133 675.305 114.4C677.171 120.533 679.838 125.8 683.305 130.2C686.905 134.467 691.238 137.8 696.305 140.2C701.371 142.6 707.105 143.8 713.505 143.8C719.771 143.8 725.438 142.6 730.505 140.2C735.571 137.8 739.838 134.467 743.305 130.2C746.905 125.8 749.638 120.533 751.505 114.4C753.371 108.133 754.305 101.2 754.305 93.6C754.305 86 753.371 79.1333 751.505 73C749.638 66.7333 746.905 61.4667 743.305 57.2C739.838 52.8 735.571 49.4 730.505 47C725.438 44.6 719.771 43.4 713.505 43.4C707.105 43.4 701.371 44.6 696.305 47C691.238 49.4 686.905 52.8 683.305 57.2C679.838 61.6 677.171 66.8667 675.305 73C673.438 79.1333 672.505 86 672.505 93.6ZM780.705 93.6C780.705 105.467 778.905 115.933 775.305 125C771.838 134.067 767.038 141.667 760.905 147.8C754.905 153.8 747.838 158.333 739.705 161.4C731.571 164.467 722.905 166 713.705 166C704.505 166 695.771 164.467 687.505 161.4C679.371 158.333 672.238 153.8 666.105 147.8C660.105 141.667 655.305 134.067 651.705 125C648.105 115.933 646.305 105.467 646.305 93.6C646.305 81.7333 648.105 71.3333 651.705 62.4C655.305 53.3333 660.171 45.7333 666.305 39.6C672.571 33.4667 679.771 28.8667 687.905 25.8C696.038 22.7333 704.638 21.2 713.705 21.2C722.771 21.2 731.371 22.7333 739.505 25.8C747.638 28.8667 754.705 33.4667 760.705 39.6C766.838 45.7333 771.705 53.3333 775.305 62.4C778.905 71.3333 780.705 81.7333 780.705 93.6Z" fill="#56CCF2"/>
</svg>
